
<svg width="16" height="16" viewBox="0 0 16 16" fill="none" xmlns="http://www.w3.org/2000/svg">
<g clip-path="url(#clip0_16585_733)">
<path d="M3.3915 2.77345C3.06048 2.79692 2.79712 3.06028 2.77365 3.39131L2.68822 4.59626C2.67374 4.80051 2.5662 4.98678 2.39655 5.10145L1.39575 5.7779C1.12081 5.96374 1.02441 6.32349 1.1696 6.6219L1.69809 7.70814C1.78768 7.89226 1.78768 8.10735 1.69809 8.29148L1.1696 9.37771C1.02441 9.67612 1.1208 10.0359 1.39575 10.2217L2.39655 10.8982C2.5662 11.0128 2.67374 11.1991 2.68822 11.4034L2.77365 12.6083C2.79712 12.9393 3.06048 13.2027 3.3915 13.2262L4.59645 13.3116C4.8007 13.3261 4.98697 13.4336 5.10164 13.6033L5.7781 14.6041C5.96393 14.879 6.32369 14.9754 6.6221 14.8302L7.70833 14.3017C7.89246 14.2121 8.10754 14.2121 8.29167 14.3017L9.3779 14.8302C9.67631 14.9754 10.0361 14.879 10.2219 14.6041L10.8984 13.6033C11.013 13.4336 11.1993 13.3261 11.4035 13.3116L12.6085 13.2262C12.9395 13.2027 13.2029 12.9393 13.2264 12.6083L13.3118 11.4034C13.3263 11.1991 13.4338 11.0128 13.6034 10.8982L14.6043 10.2217C14.8792 10.0359 14.9756 9.67612 14.8304 9.37771L14.3019 8.29148C14.2123 8.10735 14.2123 7.89226 14.3019 7.70814L14.8304 6.6219C14.9756 6.3235 14.8792 5.96374 14.6043 5.7779L13.6034 5.10145C13.4338 4.98678 13.3263 4.80051 13.3118 4.59626L13.2264 3.39131C13.2029 3.06028 12.9395 2.79692 12.6085 2.77345L11.4035 2.68803C11.1993 2.67355 11.013 2.56601 10.8984 2.39636L10.2219 1.39555C10.0361 1.12061 9.67631 1.02421 9.3779 1.1694L8.29167 1.6979C8.10754 1.78748 7.89246 1.78748 7.70833 1.6979L6.6221 1.1694C6.32369 1.02421 5.96393 1.12061 5.7781 1.39555L5.10164 2.39636C4.98697 2.56601 4.8007 2.67355 4.59645 2.68803L3.3915 2.77345Z" fill="#00A5EC"/>
<path d="M11.125 5.75L6.75 10.125L4.875 8.25" stroke="white" stroke-width="1.25" stroke-linecap="round" stroke-linejoin="round"/>
</g>
<defs>
<clipPath id="clip0_16585_733">
<rect width="16" height="16" fill="white"/>
</clipPath>
</defs>
</svg>
